<svg xmlns:xlink="http://www.w3.org/1999/xlink" xmlns="http://www.w3.org/2000/svg" style="" data-svgdocument="" id="_N8JAJwRwIU_4XTEjql3KM" class="fl-svgdocument" x="0" y="0" overflow="hidden" data-bbox="48 219.15417003557928 416 73.69165992884149" viewBox="48 219.15 416 73.69"><defs id="_63rYa4U1Th2HsDAtWeZl3" transform="matrix(1.32625150680542, 0, 0, 1.32625150680542, -34.07599639892578, 212.7108917236328)"/><path id="_OH0bHv-szRnnNezGgBacs" d="M456.26 294.24H44.338C19.952 294.24 0 274.286 0 249.9c0-24.386 19.952-44.338 44.338-44.338H456.26  c24.388 0 44.34 19.953 44.34 44.338C500.6 274.286 480.646 294.24 456.26 294.24" fill="#EC4C4C" transform="matrix(0.8310028314590454, 0, 0, 0.8310028314590454, 48, 48.33157730102539)"/><path text="Discover Image" text-anchor="middle" font-size="100" letter-spacing="0" side="left" offset="0.5" dx="0" dy="0" space="preserve" href="" font-family="Open Sans" font-scale="contain" transform="matrix(0.4119206666946411, 0, 0, 0.4119206666946411, 282.1548156738281, 267.7925720214844)" x="0" y="0" fill="#FFFFFF" font-weight="700" font-style="italic" data-fl-textpath="" id="_M7PbHQl6zGg_Ik89uViKy" d="M-294.5796875-44.38L-294.5796875-44.38Q-294.5796875-30.71 -299.3696875-20.63Q-304.1496875-10.55 -313.2096875-5.27Q-322.26968750000003 0 -334.5696875 0L-334.5696875 0L-356.5896875 0L-341.4996875-71.39L-322.1696875-71.39Q-308.9796875-71.39 -301.7796875-64.4Q-294.5796875-57.42 -294.5796875-44.38ZM-339.0596875-12.5L-333.8896875-12.5Q-326.6596875-12.5 -321.2896875-16.21Q-315.9196875-19.92 -312.8896875-27.12Q-309.8596875-34.33 -309.8596875-43.6L-309.8596875-43.6Q-309.8596875-51.12 -313.3996875-55.05Q-316.9396875-58.98 -323.5796875-58.98L-323.5796875-58.98L-329.1996875-58.98L-339.0596875-12.5ZM-275.78390625-67.38L-275.78390625-67.38Q-275.78390625-71.63 -273.46390625-73.8Q-271.14390625-75.98 -266.89390625-75.98L-266.89390625-75.98Q-263.33390625-75.98 -261.47390625-74.46Q-259.62390625-72.95 -259.62390625-70.12L-259.62390625-70.12Q-259.62390625-66.21 -261.76390625-63.79Q-263.91390625-61.38 -268.40390625-61.38L-268.40390625-61.38Q-275.78390625-61.38 -275.78390625-67.38ZM-263.42390625-54.59L-275.00390625 0L-289.69390625 0L-278.12390625-54.59L-263.42390625-54.59ZM-221.33640625-18.02L-221.33640625-18.02Q-221.33640625-8.84 -227.41640625-3.93Q-233.49640625 0.98 -244.33640625 0.98L-244.33640625 0.98Q-249.55640625 0.98 -253.44640625 0.24Q-257.32640625-0.49 -260.69640625-2.2L-260.69640625-2.2L-260.69640625-14.31Q-253.02640625-9.91 -245.11640625-9.91L-245.11640625-9.91Q-241.20640625-9.91 -238.71640625-11.5Q-236.22640625-13.09 -236.22640625-15.82L-236.22640625-15.82Q-236.22640625-17.92 -238.03640625-19.58Q-239.84640625-21.24 -244.43640625-23.78L-244.43640625-23.78Q-250.34640625-27.1 -252.68640625-30.4Q-255.02640625-33.69 -255.02640625-38.18L-255.02640625-38.18Q-255.02640625-46.48 -249.63640625-51.05Q-244.23640625000002-55.62 -234.22640625-55.62L-234.22640625-55.62Q-224.41640625-55.62 -216.50640625-50.98L-216.50640625-50.98L-221.33640625-40.48Q-228.17640625-44.58 -233.93640625-44.58L-233.93640625-44.58Q-236.71640625-44.58 -238.42640625-43.33Q-240.13640625-42.09 -240.13640625-39.99L-240.13640625-39.99Q-240.13640625-38.09 -238.57640625-36.65Q-237.01640625-35.21 -232.71640625-33.01L-232.71640625-33.01Q-226.70640625-29.93 -224.02640625-26.32Q-221.33640625-22.71 -221.33640625-18.02ZM-189.791953125 0.98L-189.791953125 0.98Q-199.611953125 0.98 -204.861953125-4.27Q-210.111953125-9.52 -210.111953125-19.09L-210.111953125-19.09Q-210.111953125-29.44 -206.471953125-37.92Q-202.831953125-46.39 -196.241953125-51Q-189.651953125-55.62 -181.201953125-55.62L-181.201953125-55.62Q-172.311953125-55.62 -165.181953125-52.1L-165.181953125-52.1L-169.681953125-40.92Q-172.311953125-42.04 -174.851953125-42.87Q-177.391953125-43.7 -180.611953125-43.7L-180.611953125-43.7Q-184.761953125-43.7 -188.111953125-40.58Q-191.451953125-37.45 -193.33195312499998-32.01Q-195.211953125-26.56 -195.211953125-20.31L-195.211953125-20.31Q-195.211953125-15.63 -192.991953125-13.26Q-190.771953125-10.89 -186.811953125-10.89L-186.811953125-10.89Q-183.101953125-10.89 -179.931953125-12.04Q-176.761953125-13.18 -173.391953125-14.89L-173.391953125-14.89L-173.391953125-2.88Q-180.811953125 0.98 -189.791953125 0.98ZM-126.9009375-33.98L-126.9009375-33.98Q-126.9009375-43.6 -133.8909375-43.6L-133.8909375-43.6Q-137.5509375-43.6 -140.4509375-40.63Q-143.3609375-37.65 -145.1909375-31.88Q-147.0209375-26.12 -147.0209375-20.02L-147.0209375-20.02Q-147.0209375-10.99 -139.7009375-10.99L-139.7009375-10.99Q-136.0309375-10.99 -133.1009375-13.99Q-130.1709375-16.99 -128.54093749999998-22.34Q-126.9009375-27.69 -126.9009375-33.98ZM-112.1109375-33.98L-112.1109375-33.98Q-112.1109375-23.68 -115.5509375-15.72Q-118.9909375-7.76 -125.4909375-3.39Q-131.9809375 0.98 -140.9209375 0.98L-140.9209375 0.98Q-150.4409375 0.98 -156.1309375-4.76Q-161.8209375-10.5 -161.8209375-20.02L-161.8209375-20.02Q-161.8209375-30.42 -158.3209375-38.55Q-154.8309375-46.68 -148.2409375-51.15Q-141.6509375-55.62 -132.8109375-55.62L-132.8109375-55.62Q-123.2409375-55.62 -117.67093750000001-49.85Q-112.1109375-44.09 -112.1109375-33.98ZM-85.79484375-14.7L-85.49484375-14.7Q-82.81484375-22.17 -81.00484374999999-25.59L-81.00484374999999-25.59L-66.50484374999999-54.59L-50.73484375-54.59L-80.22484375 0L-95.99484375 0L-102.73484375-54.59L-88.33484375-54.59L-86.13484375-25.98Q-85.79484375-19.48 -85.79484375-14.7L-85.79484375-14.7ZM-22.514140625000003-45.02L-22.514140625000003-45.02Q-26.804140625-45.02 -30.614140625-41.11Q-34.424140625-37.21 -35.594140625-31.59L-35.594140625-31.59L-33.394140625-31.59Q-25.834140625-31.59 -21.604140625-33.96Q-17.384140625-36.33 -17.384140625-40.38L-17.384140625-40.38Q-17.384140625-45.02 -22.514140625000003-45.02ZM-30.514140625 0.98L-30.514140625 0.98Q-40.774140625 0.98 -46.434140625-4.54Q-52.104140625-10.06 -52.104140625-20.12L-52.104140625-20.12Q-52.104140625-30.22 -48.074140625-38.55Q-44.044140625-46.88 -37.154140625-51.25Q-30.274140625-55.62 -21.584140625000003-55.62L-21.584140625000003-55.62Q-12.944140625000003-55.62 -8.104140625-51.64Q-3.274140625000001-47.66 -3.274140625000001-40.72L-3.274140625000001-40.72Q-3.274140625000001-31.59 -11.424140625-26.64Q-19.584140625000003-21.68 -34.714140625-21.68L-34.714140625-21.68L-37.204140625-21.68L-37.304140625-20.65L-37.304140625-19.68Q-37.304140625-15.23 -34.794140625-12.67Q-32.274140625-10.11 -27.584140625-10.11L-27.584140625-10.11Q-23.344140625-10.11 -19.874140625000003-11.04Q-16.404140624999997-11.96 -11.474140624999997-14.31L-11.474140624999997-14.31L-11.474140624999997-3.22Q-19.874140625000003 0.98 -30.514140625 0.98ZM 40.32875-55.62L 40.32875-55.62Q 43.20875-55.62  45.01875-55.08L 45.01875-55.08L 41.79875-40.92Q 39.59875-41.7  36.91875-41.7L 36.91875-41.7Q 31.24875-41.7  26.97875-37.23Q 22.70875-32.76  20.89875-24.41L 20.89875-24.41L 15.71875 0L 1.02875 0L 12.59875-54.59L 23.82875-54.59L 22.79875-44.48L 23.09875-44.48Q 30.26875-55.62  40.32875-55.62ZM 84.76515625 0L 69.87515625 0L 85.10515625-71.39L 99.99515625000001-71.39L 84.76515625 0ZM 140.672890625-55.62L 140.672890625-55.62Q 151.362890625-55.62  153.462890625-44.48L 153.462890625-44.48L 153.762890625-44.48Q 157.082890625-49.85  161.592890625-52.73Q 166.112890625-55.62  171.242890625-55.62L 171.242890625-55.62Q 177.88289062500002-55.62  181.372890625-51.46Q 184.862890625-47.31  184.862890625-39.89L 184.862890625-39.89Q 184.862890625-36.18  183.742890625-31.1L 183.742890625-31.1L 177.242890625 0L 162.552890625 0L 169.282890625-31.88Q 170.072890625-35.21  170.072890625-37.7L 170.072890625-37.7Q 170.072890625-43.7  165.282890625-43.7L 165.282890625-43.7Q 160.79289062499998-43.7  157.152890625-38.23Q 153.512890625-32.76  151.362890625-22.71L 151.362890625-22.71L 146.682890625 0L 131.982890625 0L 138.672890625-31.88Q 139.452890625-35.21  139.452890625-37.7L 139.452890625-37.7Q 139.452890625-43.7  134.672890625-43.7L 134.672890625-43.7Q 130.172890625-43.7  126.512890625-38.13Q 122.852890625-32.57  120.75289062499999-22.61L 120.75289062499999-22.61L 115.962890625 0L 101.272890625 0L 112.842890625-54.59L 124.072890625-54.59L 123.042890625-44.48L 123.342890625-44.48Q 130.472890625-55.62  140.672890625-55.62ZM 209.76140625 0.98L 209.76140625 0.98Q 202.59140625 0.98  198.46140625-4.22Q 194.33140625-9.42  194.33140625-18.8L 194.33140625-18.8Q 194.33140625-28.47  197.85140625-37.23Q 201.37140625-46  207.08140625-50.81Q 212.79140625-55.62  219.63140625-55.62L 219.63140625-55.62Q 224.36140625000002-55.62  227.81140625-53.56Q 231.25140625-51.51  233.15140625-47.61L 233.15140625-47.61L 233.54140625-47.61L 236.33140625-54.59L 247.65140625-54.59L 236.03140625 0L 224.85140625 0L 225.54140625-7.08L 225.34140625-7.08Q 218.80140625 0.98  209.76140625 0.98ZM 215.53140625-10.89L 215.53140625-10.89Q 218.90140625-10.89  222.02140624999998-14.16Q 225.15140625-17.43  227.05140625-23.02Q 228.95140625-28.61  228.95140625-35.69L 228.95140625-35.69Q 228.95140625-39.16  227.07140625-41.43Q 225.19140625-43.7  222.12140625-43.7L 222.12140625-43.7Q 218.80140625-43.7  215.79140625-40.19Q 212.79140625-36.67  211.01140625-30.91Q 209.23140625-25.15  209.23140625-19.48L 209.23140625-19.48Q 209.23140625-15.19  210.86140625000002-13.04Q 212.50140625-10.89  215.53140625-10.89ZM 287.985234375-54.49L 307.27523437499997-54.49L 305.565234375-46.39L 297.075234375-44.38Q 297.855234375-41.85  297.855234375-38.62L 297.855234375-38.62Q 297.855234375-29.1  291.945234375-23.56Q 286.035234375-18.02  275.875234375-18.02L 275.875234375-18.02Q 272.995234375-18.02  271.045234375-18.51L 271.045234375-18.51Q 266.945234375-17.19  266.945234375-14.7L 266.945234375-14.7Q 266.945234375-13.04  268.405234375-12.3Q 269.875234375-11.57  272.755234375-11.18L 272.755234375-11.18L 279.445234375-10.3Q 287.405234375-9.28  291.035234375-6.18Q 294.675234375-3.08  294.675234375 2.78L 294.675234375 2.78Q 294.675234375 13.09  287.065234375 18.55Q 279.445234375 24.02  265.285234375 24.02L 265.285234375 24.02Q 255.125234375 24.02  249.435234375 20.34Q 243.745234375 16.65 243.745234375 10.21L 243.745234375 10.21Q 243.745234375 5.22 247.095234375 1.64Q 250.435234375-1.95  257.565234375-4.3L 257.565234375-4.3Q 253.955234375-6.59  253.955234375-10.79L 253.955234375-10.79Q 253.955234375-14.26  256.125234375-16.77Q 258.305234375-19.29  263.285234375-21.58L 263.285234375-21.58Q 260.105234375-23.97  258.595234375-27.05Q 257.075234375-30.13  257.075234375-34.52L 257.075234375-34.52Q 257.075234375-44.24  263.205234375-49.93Q 269.335234375-55.62  279.885234375-55.62L 279.885234375-55.62Q 283.935234375-55.62  287.985234375-54.49L 287.985234375-54.49ZM 272.755234375 0.98L 267.185234375 0.29Q 262.015234375 0.98  259.355234375 3.08Q 256.685234375 5.18  256.685234375 8.4L 256.685234375 8.4Q 256.685234375 14.01  266.165234375 14.01L 266.165234375 14.01Q 273.535234375 14.01  277.295234375 11.82Q 281.055234375 9.62  281.055234375 5.62L 281.055234375 5.62Q 281.055234375 3.71  279.465234375 2.69Q 277.885234375 1.66  272.755234375 0.98L 272.755234375 0.98ZM 279.345234375-46.29L 279.345234375-46.29Q 275.585234375-46.29  273.265234375-42.55Q 270.945234375-38.82  270.945234375-33.2L 270.945234375-33.2Q 270.945234375-27.39  275.975234375-27.39L 275.975234375-27.39Q 279.635234375-27.39  281.905234375-31.13Q 284.175234375-34.86  284.175234375-40.58L 284.175234375-40.58Q 284.175234375-46.29  279.345234375-46.29ZM 337.446796875-45.02L 337.446796875-45.02Q 333.156796875-45.02  329.346796875-41.11Q 325.536796875-37.21  324.366796875-31.59L 324.366796875-31.59L 326.566796875-31.59Q 334.126796875-31.59  338.356796875-33.96Q 342.576796875-36.33  342.576796875-40.38L 342.576796875-40.38Q 342.576796875-45.02  337.446796875-45.02ZM 329.446796875 0.98L 329.446796875 0.98Q 319.186796875 0.98  313.526796875-4.54Q 307.856796875-10.06  307.856796875-20.12L 307.856796875-20.12Q 307.856796875-30.22  311.886796875-38.55Q 315.916796875-46.88  322.806796875-51.25Q 329.686796875-55.62  338.37679687499997-55.62L 338.37679687499997-55.62Q 347.016796875-55.62  351.856796875-51.64Q 356.686796875-47.66  356.686796875-40.72L 356.686796875-40.72Q 356.686796875-31.59  348.536796875-26.64Q 340.37679687499997-21.68  325.246796875-21.68L 325.246796875-21.68L 322.756796875-21.68L 322.656796875-20.65L 322.656796875-19.68Q 322.656796875-15.23  325.166796875-12.67Q 327.686796875-10.11  332.376796875-10.11L 332.376796875-10.11Q 336.616796875-10.11  340.086796875-11.04Q 343.55679687500003-11.96  348.486796875-14.31L 348.486796875-14.31L 348.486796875-3.22Q 340.086796875 0.98  329.446796875 0.98Z"/><path id="_1kag0bq_exN3UMEdV5vNN" d="M32 8C18.8 8 8 18.8 8 32s10.8 24 24 24s24-10.8 24-24S45.2 8 32 8z M27.4 40l-4.4-7.7L22.8 32l0.2-0.4l0 0l4.2-7.6h8.7  l2.4 4.1l2.2 3.9L36 40H27.4z M40 27.1L38.3 24h14.2c1 2.5 1.5 5.2 1.5 8c0 4.6-1.4 8.9-3.9 12.5L40 27.1z M51.6 22H37.2h-8.8  L35 10.2C42.2 11.2 48.4 15.7 51.6 22z M32 10c0.3 0 0.5 0 0.8 0l-6.7 12h0l-4.4 8l-6.8-11.7C18.9 13.2 25.1 10 32 10z M13.5 20  l7.7 13.3l3.7 6.7H11.5c-1-2.5-1.5-5.2-1.5-8C10 27.6 11.3 23.5 13.5 20z M12.4 42H26H35l-6.7 11.7C21.3 52.5 15.5 48 12.4 42z   M32 54c-0.5 0-1.1 0-1.6-0.1l11.4-19.8l7 12.1C44.7 51 38.7 54 32 54z" fill="#FFFFFF" transform="matrix(1.1936264038085938, 0, 0, 1.1936264038085938, 50.28818130493164, 217.803955078125)"/></svg>